<?xml version="1.0" encoding="UTF-8" standalone="no"?>
<svg
   width="100mm"
   height="100mm"
   viewBox="0 0 200 200"
   version="1.1"
   id="svg5"
   sodipodi:docname="pluginIcon_dark.svg"
   inkscape:version="1.1.1 (3bf5ae0d25, 2021-09-20)"
   xmlns:inkscape="http://www.inkscape.org/namespaces/inkscape"
   xmlns:sodipodi="http://sodipodi.sourceforge.net/DTD/sodipodi-0.dtd"
   xmlns="http://www.w3.org/2000/svg"
   xmlns:svg="http://www.w3.org/2000/svg">
  <sodipodi:namedview
     id="namedview15"
     pagecolor="#505050"
     bordercolor="#eeeeee"
     borderopacity="1"
     inkscape:pageshadow="0"
     inkscape:pageopacity="0"
     inkscape:pagecheckerboard="0"
     inkscape:document-units="mm"
     showgrid="false"
     inkscape:zoom="1.3938106"
     inkscape:cx="226.71661"
     inkscape:cy="148.155"
     inkscape:window-width="1920"
     inkscape:window-height="1009"
     inkscape:window-x="-8"
     inkscape:window-y="-8"
     inkscape:window-maximized="1"
     inkscape:current-layer="layer1" />
  <defs
     id="defs2" />
  <g
     id="layer1"
     transform="matrix(1.1365069,0,0,1.1365069,-14.517006,-11.908622)">
    <path
       id="rect865-6"
       style="opacity:1;fill:#6480e4;fill-opacity:0;stroke:#1f1f1f;stroke-width:20.3436;stroke-linecap:round;stroke-linejoin:round;stroke-miterlimit:3.5;stroke-dasharray:none;stroke-opacity:1;paint-order:markers stroke fill"
       d="m 167.81311,33.583708 c -0.17864,-0.0015 -0.35751,0.0014 -0.53632,0.0091 -2.44091,0.105244 -4.87945,1.071197 -6.83227,2.904925 l -11.98959,11.258831 c -0.3317,-0.937807 -0.85715,-1.821071 -1.58015,-2.591031 -1.54147,-1.641574 -3.65444,-2.421685 -5.76453,-2.330694 -1.80029,0.07764 -3.59842,0.788741 -5.03871,2.141206 l -13.99981,13.146264 c -0.53295,-0.672554 -1.10401,-1.349462 -1.70128,-1.985492 -1.52143,-1.620216 -3.60692,-2.39084 -5.68954,-2.301023 -1.77686,0.07668 -3.55127,0.779124 -4.9728,2.114 L 62.537281,100.24443 H 32.814157 c -4.855259,0 -8.764196,3.6992 -8.764196,8.29377 v 52.74335 c 0,4.59456 3.908937,8.29295 8.764196,8.29295 h 52.933646 c 4.855259,0 8.764191,-3.69839 8.764191,-8.29295 v -23.45108 l 37.378466,-35.09963 1.24816,-1.17152 c 2.554,-2.398274 2.73252,-6.328363 0.40039,-8.811947 -0.52135,-0.555194 -1.12406,-0.987596 -1.77212,-1.30088 l 40.58816,-38.112452 2.07199,-1.945952 c 4.24165,-3.98296 4.53799,-10.509521 0.66487,-14.634179 -1.95942,-2.086605 -4.5991,-3.147462 -7.2788,-3.170202 z M 99.636424,37.29189 c -0.06646,-5.61e-4 -0.133605,0.0012 -0.20022,0.0041 -0.908533,0.03925 -1.815562,0.398351 -2.542431,1.080902 l -33.098462,31.07918 c -1.57879,1.48252 -1.688782,3.912062 -0.247155,5.447336 1.441646,1.535257 3.873506,1.577283 5.452289,0.09471 l 32.326525,-30.355011 0.77116,-0.72417 c 1.5788,-1.482513 1.68879,-3.912081 0.24714,-5.447344 -0.72931,-0.776664 -1.71144,-1.171302 -2.708846,-1.179766 z m 41.302466,80.02535 c -0.0515,-4.3e-4 -0.10328,2.6e-4 -0.1548,0.003 -0.70368,0.0304 -1.4069,0.30844 -1.96985,0.83706 l -25.63431,24.07146 c -1.22279,1.14822 -1.30852,3.02908 -0.19198,4.21815 1.11656,1.18909 3.0003,1.22227 4.22311,0.0742 l 25.037,-23.51043 0.5973,-0.56023 c 1.22282,-1.14821 1.30853,-3.02991 0.19198,-4.21896 -0.56487,-0.60154 -1.32587,-0.9071 -2.09837,-0.91366 z" />
    <rect
       style="fill:#6480e4;fill-opacity:1;stroke:#cecece;stroke-width:14.2923;stroke-linecap:round;stroke-linejoin:round;stroke-miterlimit:3.5;stroke-opacity:0;paint-order:markers stroke fill"
       id="rect865"
       width="70.461639"
       height="69.330055"
       x="24.03359"
       y="100.27271"
       rx="8.7640028"
       ry="8.2934065" />
    <path
       id="rect865-3"
       style="fill:#e3e3e3;fill-opacity:1;stroke:#2c2c2c;stroke-width:6.67806;stroke-linecap:round;stroke-linejoin:round;stroke-miterlimit:3.5;stroke-dasharray:none;stroke-opacity:1;paint-order:markers stroke fill"
       d="m 42.933405,113.46737 c -2.975642,0 -5.371283,2.26727 -5.371283,5.08313 v 32.32439 c 0,2.81583 2.395641,5.08311 5.371283,5.08311 h 32.441193 c 2.975657,0 5.37129,-2.26728 5.37129,-5.08311 V 118.5505 c 0,-2.81586 -2.395633,-5.08313 -5.37129,-5.08313 z" />
    <path
       id="rect5295-5"
       style="fill:#6480e4;fill-opacity:1;stroke:#cecece;stroke-width:39.9791;stroke-linecap:round;stroke-linejoin:round;stroke-miterlimit:3.5;stroke-opacity:0;paint-order:markers stroke fill"
       d="m 71.506366,120.02392 c -4.241645,3.98298 -4.537795,10.50986 -0.664665,14.63452 3.873145,4.12469 10.405709,4.23923 14.647354,0.25634 l 86.849275,-81.552886 2.07214,-1.945811 c 4.24164,-3.982956 4.53783,-10.509842 0.66471,-14.634499 -2.09001,-2.225712 -4.95437,-3.283801 -7.81531,-3.160429 -2.44089,0.105242 -4.87925,1.070434 -6.83206,2.904161 z" />
    <path
       id="rect5295-5-4"
       style="fill:#6480e4;fill-opacity:1;stroke:#cecece;stroke-width:29.1029;stroke-linecap:round;stroke-linejoin:round;stroke-miterlimit:3.5;stroke-opacity:0;paint-order:markers stroke fill"
       d="m 44.960617,116.76111 c -3.08771,2.89943 -3.303295,7.65068 -0.483842,10.65322 2.819474,3.00258 7.903097,6.91249 10.895589,3.91497 l 62.989066,-63.094911 7.10097,-5.144825 c 0,0 -2.28922,-3.92228 -5.10867,-6.924832 -1.52144,-1.620217 -3.60652,-2.390454 -5.68916,-2.300651 -1.77685,0.07668 -3.55187,0.77923 -4.97341,2.114106 z" />
    <path
       id="rect5295-5-4-2"
       style="fill:#6480e4;fill-opacity:1;stroke:#cecece;stroke-width:11.5253;stroke-linecap:round;stroke-linejoin:round;stroke-miterlimit:3.5;stroke-opacity:0;paint-order:markers stroke fill"
       d="m 113.16315,142.25589 c -1.22278,1.14822 -1.30815,3.02982 -0.19159,4.21887 1.11654,1.18909 2.99978,1.22211 4.22258,0.074 l 25.03704,-23.51024 0.59738,-0.56095 c 1.2228,-1.14823 1.3082,-3.0298 0.19163,-4.21886 -0.60252,-0.64164 -1.42824,-0.94666 -2.253,-0.9111 -0.70368,0.0304 -1.40663,0.30859 -1.96958,0.83721 z" />
    <path
       id="rect5295-7"
       style="fill:#e3e3e3;fill-opacity:1;stroke:#cecece;stroke-width:24.0728;stroke-linecap:round;stroke-linejoin:round;stroke-miterlimit:3.5;stroke-opacity:0;paint-order:markers stroke fill"
       d="m 71.159878,142.8986 c -2.55403,2.39828 -2.732351,6.32832 -0.400216,8.81192 2.33214,2.48361 6.265618,2.55258 8.819642,0.15432 l 52.294786,-49.10563 1.2477,-1.17164 c 2.55402,-2.39827 2.73237,-6.328301 0.40024,-8.811885 -1.25847,-1.340177 -2.98319,-1.977267 -4.70587,-1.902992 -1.46972,0.06331 -2.93794,0.644537 -4.11379,1.748697 z" />
    <path
       id="rect5295"
       style="fill:#e3e3e3;fill-opacity:1;stroke:#cecece;stroke-width:29.4867;stroke-linecap:round;stroke-linejoin:round;stroke-miterlimit:3.5;stroke-opacity:0;paint-order:markers stroke fill"
       d="m 70.470924,106.58867 c -3.128416,2.93766 -3.346843,7.75157 -0.490212,10.79369 2.856623,3.04216 7.674731,3.12662 10.803152,0.18906 l 64.055616,-60.149263 1.52833,-1.435137 c 3.12842,-2.937624 3.34686,-7.751518 0.49023,-10.793656 -1.54147,-1.641572 -3.65408,-2.421966 -5.76416,-2.330974 -1.80028,0.07763 -3.59871,0.7895 -5.039,2.141963 z" />
    <path
       id="rect5295-8"
       style="fill:#e3e3e3;fill-opacity:1;stroke:#cecece;stroke-width:29.4867;stroke-linecap:round;stroke-linejoin:round;stroke-miterlimit:3.5;stroke-opacity:0;paint-order:markers stroke fill"
       d="m 43.468138,131.96705 c -3.128418,2.93765 -3.346849,7.75155 -0.490219,10.79368 2.856629,3.04217 7.674725,3.12663 10.803144,0.18906 l 64.055637,-60.149252 1.52832,-1.435142 c 3.12842,-2.937619 3.34684,-7.751524 0.49024,-10.79366 -1.54148,-1.641564 -3.65408,-2.421971 -5.76416,-2.330969 -1.8003,0.07764 -3.59872,0.789492 -5.039,2.141953 z" />
    <path
       id="rect5295-8-3"
       style="fill:#e3e3e3;fill-opacity:1;stroke:#cecece;stroke-width:14.8808;stroke-linecap:round;stroke-linejoin:round;stroke-miterlimit:3.5;stroke-opacity:0;paint-order:markers stroke fill"
       d="m 63.778931,69.483971 c -1.578793,1.482503 -1.689036,3.911904 -0.247408,5.447178 1.441646,1.535257 3.873159,1.577871 5.45194,0.09534 l 32.326527,-30.355124 0.77127,-0.724248 c 1.57882,-1.482511 1.68906,-3.911906 0.24741,-5.447168 -0.77792,-0.828439 -1.84409,-1.22227 -2.908967,-1.176352 -0.908539,0.03925 -1.816128,0.398424 -2.542996,1.080975 z" />
  </g>
</svg>
