<?xml version="1.0" encoding="UTF-8" standalone="no"?>
<svg
        width="100mm"
        height="100mm"
        viewBox="0 0 200 200"
        version="1.1"
        id="svg5"
        xmlns="http://www.w3.org/2000/svg"
>

    <defs
            id="defs2"/>
    <g
            id="layer1"
            transform="matrix(1.1365069,0,0,1.1365069,-14.517006,-11.908622)">
        <path
                id="rect865-6"
                style="opacity:1;fill:#6480e4;fill-opacity:0;stroke:#2f2f2f;stroke-width:12.8593;stroke-linecap:round;stroke-linejoin:round;stroke-miterlimit:3.5;stroke-dasharray:none;stroke-opacity:1;paint-order:markers stroke fill"
                d="m 169.63748,32.720763 c -0.18091,-0.0015 -0.36205,0.0014 -0.54313,0.0092 -2.47188,0.106579 -4.94136,1.084789 -6.91896,2.941784 l -12.14172,11.401691 c -0.33591,-0.949707 -0.86803,-1.844178 -1.6002,-2.623908 -1.56103,-1.662403 -3.70081,-2.452413 -5.83768,-2.360267 -1.82313,0.07862 -3.64408,0.798749 -5.10264,2.168375 L 123.3157,57.57071 c -0.53971,-0.681088 -1.11802,-1.366585 -1.72287,-2.010686 -1.54073,-1.640774 -3.65268,-2.421176 -5.76173,-2.330219 -1.79941,0.07765 -3.59633,0.78901 -5.0359,2.140823 L 63.02584,100.22732 H 32.92557 c -4.916865,0 -8.875401,3.74614 -8.875401,8.399 v 53.4126 c 0,4.65285 3.958536,8.39817 8.875401,8.39817 h 53.605302 c 4.916865,0 8.875396,-3.74532 8.875396,-8.39817 v -23.74865 l 37.852752,-35.54499 1.26399,-1.18639 c 2.58641,-2.428703 2.7672,-6.408659 0.40547,-8.923756 -0.52796,-0.562239 -1.13832,-1.000128 -1.7946,-1.317387 l 41.10317,-38.596047 2.09828,-1.970643 c 4.29547,-4.033498 4.59557,-10.642873 0.6733,-14.819867 -1.98428,-2.113081 -4.65745,-3.187399 -7.37115,-3.210427 z m -69.04176,3.755233 c -0.0673,-5.68e-4 -0.1353,0.0012 -0.20276,0.0042 -0.920061,0.03975 -1.838599,0.403405 -2.574691,1.094617 L 64.299833,69.048345 c -1.598823,1.501332 -1.710211,3.961701 -0.250291,5.516456 1.459938,1.554737 3.922655,1.597296 5.521471,0.09591 l 32.736707,-30.740174 0.78094,-0.733359 c 1.59884,-1.501324 1.71022,-3.96172 0.25028,-5.516463 -0.73857,-0.786519 -1.73316,-1.186164 -2.74322,-1.194736 z m 41.82654,81.040764 c -0.0522,-4.4e-4 -0.10459,2.6e-4 -0.15677,0.003 -0.7126,0.0308 -1.42475,0.31235 -1.99484,0.84768 l -25.95958,24.37689 c -1.2383,1.16279 -1.32512,3.06752 -0.19441,4.27167 1.13073,1.20418 3.03837,1.23778 4.27669,0.0751 l 25.35469,-23.80874 0.60488,-0.56734 c 1.23833,-1.16278 1.32513,-3.06835 0.19441,-4.27249 -0.57203,-0.60917 -1.34269,-0.91861 -2.12499,-0.92526 z"/>
        <rect
                style="fill:#6480e4;fill-opacity:1;stroke:#cecece;stroke-width:14.4736;stroke-linecap:round;stroke-linejoin:round;stroke-miterlimit:3.5;stroke-opacity:0;paint-order:markers stroke fill"
                id="rect865"
                width="71.355698"
                height="70.209755"
                x="24.03359"
                y="100.25596"
                rx="8.875206"
                ry="8.3986387"/>
        <path
                id="rect865-3"
                style="fill:#e3e3e3;fill-opacity:1;stroke:#3b3b3b;stroke-width:6.7628;stroke-linecap:round;stroke-linejoin:round;stroke-miterlimit:3.5;stroke-dasharray:none;stroke-opacity:1;paint-order:markers stroke fill"
                d="m 43.173218,113.61804 c -3.013399,0 -5.439437,2.29604 -5.439437,5.14763 v 32.73454 c 0,2.85156 2.426038,5.14761 5.439437,5.14761 h 32.852827 c 3.013414,0 5.439444,-2.29605 5.439444,-5.14761 v -32.73454 c 0,-2.85159 -2.42603,-5.14763 -5.439444,-5.14763 z"/>
        <path
                id="rect5295-5"
                style="fill:#6480e4;fill-opacity:1;stroke:#cecece;stroke-width:40.4864;stroke-linecap:round;stroke-linejoin:round;stroke-miterlimit:3.5;stroke-opacity:0;paint-order:markers stroke fill"
                d="m 72.108731,120.25778 c -4.295466,4.03352 -4.595374,10.64322 -0.673099,14.82021 3.92229,4.17703 10.537743,4.29302 14.833209,0.2596 l 87.951269,-82.587683 2.09844,-1.970501 c 4.29546,-4.033494 4.59541,-10.643197 0.67314,-14.820191 -2.11653,-2.253953 -5.01723,-3.325468 -7.91447,-3.20053 -2.47187,0.106577 -4.94117,1.084016 -6.91875,2.941011 z"/>
        <path
                id="rect5295-5-4"
                style="fill:#6480e4;fill-opacity:1;stroke:#cecece;stroke-width:29.4722;stroke-linecap:round;stroke-linejoin:round;stroke-miterlimit:3.5;stroke-opacity:0;paint-order:markers stroke fill"
                d="m 45.226152,116.95357 c -3.126889,2.93622 -3.345209,7.74776 -0.489981,10.7884 2.855249,3.04068 8.003376,7.0002 11.033839,3.96464 l 63.78831,-63.895497 7.19107,-5.210105 c 0,0 -2.31826,-3.972049 -5.17349,-7.012699 -1.54074,-1.640775 -3.65228,-2.420786 -5.76135,-2.329843 -1.79939,0.07765 -3.59694,0.789117 -5.03651,2.140931 z"/>
        <path
                id="rect5295-5-4-2"
                style="fill:#6480e4;fill-opacity:1;stroke:#cecece;stroke-width:11.6715;stroke-linecap:round;stroke-linejoin:round;stroke-miterlimit:3.5;stroke-opacity:0;paint-order:markers stroke fill"
                d="m 114.29408,142.77185 c -1.23829,1.16279 -1.32475,3.06826 -0.19402,4.2724 1.13071,1.20418 3.03784,1.23761 4.27616,0.0749 l 25.35473,-23.80856 0.60496,-0.56806 c 1.23831,-1.1628 1.32479,-3.06825 0.19406,-4.2724 -0.61017,-0.64978 -1.44637,-0.95867 -2.28159,-0.92266 -0.71261,0.0308 -1.42448,0.31251 -1.99457,0.84784 z"/>
        <path
                id="rect5295-7"
                style="fill:#e3e3e3;fill-opacity:1;stroke:#cecece;stroke-width:24.3782;stroke-linecap:round;stroke-linejoin:round;stroke-miterlimit:3.5;stroke-opacity:0;paint-order:markers stroke fill"
                d="m 71.757846,143.42271 c -2.586437,2.42871 -2.767021,6.40862 -0.405294,8.92373 2.361732,2.51513 6.34512,2.58497 8.931551,0.15628 l 52.958337,-49.72871 1.26353,-1.18651 c 2.58643,-2.4287 2.76704,-6.408598 0.40532,-8.923695 -1.27444,-1.357182 -3.02104,-2.002356 -4.76558,-1.927139 -1.48837,0.06411 -2.97522,0.652716 -4.16599,1.770886 z"/>
        <path
                id="rect5295"
                style="fill:#e3e3e3;fill-opacity:1;stroke:#cecece;stroke-width:29.8608;stroke-linecap:round;stroke-linejoin:round;stroke-miterlimit:3.5;stroke-opacity:0;paint-order:markers stroke fill"
                d="m 71.06015,106.65206 c -3.168111,2.97493 -3.38931,7.84992 -0.496432,10.93064 2.89287,3.08077 7.772113,3.1663 10.940229,0.19146 l 64.868393,-60.912471 1.54772,-1.453347 c 3.16812,-2.974898 3.38933,-7.849874 0.49645,-10.930613 -1.56103,-1.662401 -3.70044,-2.452697 -5.8373,-2.360551 -1.82312,0.07861 -3.64437,0.799518 -5.10293,2.169142 z"/>
        <path
                id="rect5295-8"
                style="fill:#e3e3e3;fill-opacity:1;stroke:#cecece;stroke-width:29.8608;stroke-linecap:round;stroke-linejoin:round;stroke-miterlimit:3.5;stroke-opacity:0;paint-order:markers stroke fill"
                d="m 43.714736,132.35245 c -3.168114,2.97493 -3.389316,7.84991 -0.496439,10.93064 2.892875,3.08077 7.772106,3.1663 10.940221,0.19146 l 64.868412,-60.912463 1.54772,-1.453352 c 3.16811,-2.974894 3.3893,-7.84988 0.49646,-10.930617 -1.56104,-1.662393 -3.70045,-2.452702 -5.8373,-2.360546 -1.82315,0.07862 -3.64439,0.79951 -5.10294,2.169132 z"/>
        <path
                id="rect5295-8-3"
                style="fill:#e3e3e3;fill-opacity:1;stroke:#cecece;stroke-width:15.0696;stroke-linecap:round;stroke-linejoin:round;stroke-miterlimit:3.5;stroke-opacity:0;paint-order:markers stroke fill"
                d="m 64.283245,69.076551 c -1.598826,1.501314 -1.710468,3.96154 -0.250547,5.516295 1.459938,1.554737 3.922304,1.597892 5.521117,0.09655 l 32.736705,-30.740289 0.78106,-0.733438 c 1.59885,-1.501322 1.71049,-3.961543 0.25055,-5.516285 -0.78779,-0.838951 -1.86749,-1.237779 -2.94588,-1.191278 -0.920068,0.03975 -1.839173,0.403479 -2.575264,1.094691 z"/>
    </g>
</svg>
