<?xml version="1.0" encoding="UTF-8" standalone="no"?>
<svg
   width="16"
   height="16"
   viewBox="0 0 200 200"
   version="1.1"
   id="svg5"
   sodipodi:docname="litecommandsIcon_kotlin_class_dark.svg"
   inkscape:version="1.1.1 (3bf5ae0d25, 2021-09-20)"
   xmlns:inkscape="http://www.inkscape.org/namespaces/inkscape"
   xmlns:sodipodi="http://sodipodi.sourceforge.net/DTD/sodipodi-0.dtd"
   xmlns="http://www.w3.org/2000/svg"
   xmlns:svg="http://www.w3.org/2000/svg">
  <sodipodi:namedview
     id="namedview15"
     pagecolor="#505050"
     bordercolor="#eeeeee"
     borderopacity="1"
     inkscape:pageshadow="0"
     inkscape:pageopacity="0"
     inkscape:pagecheckerboard="0"
     inkscape:document-units="mm"
     showgrid="false"
     inkscape:zoom="16"
     inkscape:cx="-5.3125"
     inkscape:cy="3.78125"
     inkscape:window-width="1920"
     inkscape:window-height="1009"
     inkscape:window-x="-8"
     inkscape:window-y="-8"
     inkscape:window-maximized="1"
     inkscape:current-layer="layer1"
     showguides="true"
     inkscape:guide-bbox="true"
     inkscape:snap-bbox="true"
     inkscape:snap-bbox-edge-midpoints="true"
     inkscape:bbox-nodes="true"
     inkscape:bbox-paths="true"
     inkscape:snap-bbox-midpoints="true" />
  <defs
     id="defs2" />
  <g
     id="layer1"
     transform="matrix(1.1365069,0,0,1.1365069,-14.517006,-11.908622)">
    <path
       id="rect865"
       style="opacity:1;fill:#5056e1;fill-opacity:1;stroke:#cecece;stroke-width:0;stroke-linecap:round;stroke-linejoin:round;stroke-miterlimit:3.5;stroke-dasharray:none;stroke-opacity:0;paint-order:markers stroke fill"
       d="m 4.3515625,1.4296875 c -1.6571336,0 -2.9921875,1.3504909 -2.9921875,3.0273437 v 7.1093748 c 0,1.676853 1.3350539,3.027344 2.9921875,3.027344 h 3.640625 V 13.994141 8.9941406 c 0,-0.5522896 0.4477204,-1 1,-1 h 5.2480465 0.341797 V 4.4570312 c 0,-1.6768528 -1.335054,-3.0273437 -2.992187,-3.0273437 z"
       transform="matrix(10.998613,0,0,10.998613,12.773355,10.478266)" />
    <path
       id="rect865-4"
       style="fill:#f7f7f7;fill-opacity:1;stroke:#f0f0f0;stroke-width:0;stroke-linecap:round;stroke-linejoin:round;stroke-miterlimit:3.5;stroke-dasharray:none;stroke-opacity:0;paint-order:markers stroke fill"
       d="m 6.0214844,4.0195312 c -1.1085826,10e-8 -2,0.9070298 -2,2.0351563 V 9.96875 c 0,1.128126 0.8914174,2.035156 2,2.035156 H 7.9941406 V 9.0019531 c 0,-0.5522896 0.4477204,-1 1,-1 H 11.996094 V 6.0546875 c 0,-1.1281265 -0.891418,-2.0351563 -2.0000002,-2.0351563 z"
       transform="matrix(10.998613,0,0,10.998613,12.773355,10.478266)" />
    <path
       d="m 180.40113,114.89626 h -57.72072 c -3.03716,0 -5.49931,2.46215 -5.49931,5.49931 v 54.99307 c 0,3.03671 2.46215,5.4993 5.49931,5.4993 h 57.72072 c 2.44939,0 3.67684,-2.96192 1.94456,-4.69421 l -26.35818,-26.35707 c -1.07346,-1.07457 -1.07346,-2.81455 0,-3.88911 l 26.35818,-26.3573 c 1.73228,-1.73217 0.50483,-4.69399 -1.94456,-4.69399 z"
       fill="#eee0ff"
       id="path2"
       style="display:inline;stroke-width:10.9986;fill:#2f2936;fill-opacity:1" />
    <path
       fill-rule="evenodd"
       clip-rule="evenodd"
       d="m 111.6818,120.39557 c 0,-6.07442 4.9243,-10.99861 10.99861,-10.99861 h 57.72072 c 7.34927,0 11.02941,8.88534 5.83257,14.08152 l -24.41253,24.41362 24.41253,24.41362 c 5.19684,5.19575 1.5167,14.08153 -5.83257,14.08153 h -57.72072 c -6.07431,0 -10.99861,-4.92408 -10.99861,-10.99861 z m 62.08167,0 h -51.08306 v 54.99307 h 51.08306 L 152.0995,153.72467 c -3.22149,-3.2215 -3.22149,-8.44364 0,-11.66513 z"
       fill="#955ae0"
       id="path4"
       style="display:inline;stroke-width:10.9986;fill:#b589ec;fill-opacity:1" />
    <path
       id="path4-0-7"
       style="display:none;stroke-width:10.9986"
       d="m 140.54631,212.51334 c -6.07431,0 -10.99862,4.92419 -10.99862,10.99861 v 54.99307 22.04019 h 88.05335 v -88.03187 h -19.3335 z" />
  </g>
</svg>
