<?xml version="1.0" encoding="UTF-8" standalone="no"?>
<svg
   width="16"
   height="16"
   viewBox="0 0 200 200"
   version="1.1"
   id="svg5"
   sodipodi:docname="litecommandsIcon.svg"
   inkscape:version="1.1.1 (3bf5ae0d25, 2021-09-20)"
   xmlns:inkscape="http://www.inkscape.org/namespaces/inkscape"
   xmlns:sodipodi="http://sodipodi.sourceforge.net/DTD/sodipodi-0.dtd"
   xmlns="http://www.w3.org/2000/svg"
   xmlns:svg="http://www.w3.org/2000/svg">
  <sodipodi:namedview
     id="namedview15"
     pagecolor="#505050"
     bordercolor="#eeeeee"
     borderopacity="1"
     inkscape:pageshadow="0"
     inkscape:pageopacity="0"
     inkscape:pagecheckerboard="0"
     inkscape:document-units="mm"
     showgrid="false"
     inkscape:zoom="22.30097"
     inkscape:cx="-1.1658686"
     inkscape:cy="9.4390513"
     inkscape:window-width="1920"
     inkscape:window-height="1009"
     inkscape:window-x="-8"
     inkscape:window-y="-8"
     inkscape:window-maximized="1"
     inkscape:current-layer="layer1" />
  <defs
     id="defs2" />
  <g
     id="layer1"
     transform="matrix(1.1365069,0,0,1.1365069,-14.517006,-11.908622)">
    <path
       id="rect5295-8-1"
       style="fill:#efefef;fill-opacity:0;stroke:#373737;stroke-width:4.38364;stroke-linecap:round;stroke-linejoin:round;stroke-miterlimit:3.5;stroke-dasharray:none;stroke-opacity:1;paint-order:markers stroke fill"
       d="m 64.598214,113.24514 c -3.586191,3.36752 -3.836584,8.8858 -0.56196,12.37308 3.274635,3.48732 8.797739,3.58413 12.38392,0.21672 l 73.428576,-68.950585 1.75195,-1.645139 c 3.58619,-3.367462 3.83657,-8.885766 0.56197,-12.373036 -1.76704,-1.881772 -4.18875,-2.776376 -6.60759,-2.672048 -2.06373,0.08895 -4.1253,0.905012 -5.77634,2.45537 z" />
    <path
       id="rect5295-8-3"
       style="opacity:1;fill:#f9f9f9;fill-opacity:1;stroke:#373737;stroke-width:4.49991;stroke-linecap:round;stroke-linejoin:round;stroke-miterlimit:3.5;stroke-dasharray:none;stroke-opacity:1;paint-order:markers stroke fill"
       d="m 82.786714,140.05432 c -3.168789,2.97552 -3.390052,7.85159 -0.496553,10.93303 2.893509,3.08141 7.773793,3.16694 10.942582,0.19127 l 64.882467,-60.925687 1.54801,-1.453657 c 3.16886,-2.975523 3.39012,-7.851577 0.49659,-10.932989 -1.56137,-1.662763 -3.70127,-2.453216 -5.83856,-2.361046 -1.82354,0.07882 -3.64516,0.799674 -5.10406,2.16962 z" />
    <path
       id="rect5295"
       style="opacity:1;fill:#f9f9f9;fill-opacity:1;stroke:#373737;stroke-width:4.52899;stroke-linecap:round;stroke-linejoin:round;stroke-miterlimit:3.5;stroke-dasharray:none;stroke-opacity:1;paint-order:markers stroke fill"
       d="m 61.587785,68.020774 c -2.659791,2.497621 -2.845496,6.590416 -0.416777,9.176841 2.428709,2.586455 6.525081,2.658264 9.184873,0.16073 l 54.460339,-51.139111 1.29936,-1.220159 c 2.65979,-2.497576 2.84551,-6.590364 0.4168,-9.176802 -1.31055,-1.39567 -3.1067,-2.059165 -4.90069,-1.981807 -1.53063,0.06599 -3.05966,0.671237 -4.2842,1.821111 z" />
    <path
       id="rect5295-5-4-2"
       style="opacity:1;fill:#6480e4;fill-opacity:1;stroke:#cecece;stroke-width:38.4365;stroke-linecap:round;stroke-linejoin:round;stroke-miterlimit:3.5;stroke-opacity:0;paint-order:markers stroke fill"
       d="m 78.762416,120.68177 c -4.035254,3.86978 -4.316987,10.21124 -0.632266,14.21866 3.684654,4.00752 9.899476,4.11881 13.934797,0.2494 l 82.623923,-79.235453 1.97141,-1.890541 c 4.03533,-3.869826 4.31714,-10.211193 0.63238,-14.218623 -1.98835,-2.16249 -4.71328,-3.190485 -7.43503,-3.070637 -2.32219,0.102451 -4.64198,1.040026 -6.49976,2.821609 z" />
    <path
       id="rect5295-5"
       style="opacity:1;fill:#6480e4;fill-opacity:1;stroke:#cecece;stroke-width:40.3898;stroke-linecap:round;stroke-linejoin:round;stroke-miterlimit:3.5;stroke-opacity:0;paint-order:markers stroke fill"
       d="m 28.553769,126.43262 c -4.285217,4.02389 -4.584409,10.61782 -0.671492,14.78485 3.912932,4.16706 10.512602,4.28278 14.797819,0.25897 l 87.741444,-82.390643 2.09342,-1.9658 c 4.28522,-4.023872 4.58445,-10.617799 0.67154,-14.78483 -2.11148,-2.248574 -5.00526,-3.317533 -7.89559,-3.192896 -2.46597,0.106322 -4.92937,1.081426 -6.90224,2.933994 z" />
    <path
       id="rect5295-5-5"
       style="fill:#6480e4;fill-opacity:1;stroke:#6480e4;stroke-width:3.93265;stroke-linecap:round;stroke-linejoin:round;stroke-miterlimit:3.5;stroke-dasharray:none;stroke-opacity:1;paint-order:markers stroke fill"
       d="m 124.03987,138.8256 c -2.459,2.309 -2.63064,6.09275 -0.38534,8.48388 2.24534,2.39117 6.03237,2.45756 8.49135,0.14861 l 50.34806,-47.27765 1.20126,-1.128022 c 2.45894,-2.309015 2.63066,-6.092763 0.38534,-8.483896 -1.21163,-1.290285 -2.87214,-1.903679 -4.53067,-1.832163 -1.41501,0.06098 -2.82858,0.620546 -3.96068,1.683596 z" />
    <rect
       style="opacity:1;fill:#6480e4;fill-opacity:1;stroke:#cecece;stroke-width:0;stroke-linecap:round;stroke-linejoin:round;stroke-miterlimit:3.5;stroke-dasharray:none;stroke-opacity:0;paint-order:markers stroke fill"
       id="rect865"
       width="94.994003"
       height="93.468445"
       x="13.845802"
       y="92.05378"
       rx="21.491306"
       ry="21.491306" />
    <rect
       style="fill:#f9f9f9;fill-opacity:1;stroke:#f0f0f0;stroke-width:0;stroke-linecap:round;stroke-linejoin:round;stroke-miterlimit:3.5;stroke-dasharray:none;stroke-opacity:0;paint-order:markers stroke fill"
       id="rect865-4"
       height="56.700016"
       x="32.531517"
       y="110.43799"
       rx="14.458579"
       ry="14.458579"
       width="57.629871" />
    <path
       id="rect5295-5-4"
       style="opacity:1;fill:#6480e4;fill-opacity:1;stroke:#cecece;stroke-width:29.1029;stroke-linecap:round;stroke-linejoin:round;stroke-miterlimit:3.5;stroke-opacity:0;paint-order:markers stroke fill"
       d="m 137.68032,-41.059664 c -3.08771,2.89943 -3.30329,7.65068 -0.48384,10.65322 2.81947,3.00258 7.9031,6.91249 10.89559,3.91497 l 62.98906,-63.094911 7.10097,-5.144825 c 0,0 -2.28922,-3.92228 -5.10867,-6.92483 -1.52144,-1.62022 -3.60652,-2.39046 -5.68916,-2.30065 -1.77685,0.0767 -3.55187,0.77923 -4.97341,2.1141 z" />
    <path
       id="rect5295-7"
       style="opacity:1;fill:#e3e3e3;fill-opacity:1;stroke:#cecece;stroke-width:24.0728;stroke-linecap:round;stroke-linejoin:round;stroke-miterlimit:3.5;stroke-opacity:0;paint-order:markers stroke fill"
       d="m -157.18705,156.46133 c -2.55403,2.39828 -2.73235,6.32832 -0.40022,8.81192 2.33214,2.48361 6.26562,2.55258 8.81965,0.15432 l 52.294776,-49.10563 1.2477,-1.17164 c 2.55402,-2.39827 2.73237,-6.3283 0.40024,-8.81189 -1.25847,-1.34018 -2.98319,-1.97727 -4.70587,-1.90299 -1.469716,0.0633 -2.937936,0.64454 -4.113786,1.7487 z" />
    <path
       id="rect5295-8"
       style="display:inline;opacity:1;fill:#f9f9f9;fill-opacity:1;stroke:#cecece;stroke-width:33.7939;stroke-linecap:round;stroke-linejoin:round;stroke-miterlimit:3.5;stroke-dasharray:none;stroke-opacity:0;paint-order:markers stroke fill"
       d="m 64.598214,113.24514 c -3.586184,3.36752 -3.836576,8.8858 -0.561952,12.37308 3.274627,3.48732 8.797736,3.58413 12.383922,0.21672 l 73.428566,-68.950583 1.75195,-1.645139 c 3.58619,-3.367462 3.83657,-8.885766 0.56197,-12.373036 -1.76704,-1.881772 -4.18875,-2.776376 -6.60759,-2.672048 -2.06373,0.08895 -4.1253,0.905012 -5.77634,2.45537 z" />
    <path
       id="rect865-6"
       style="opacity:1;fill:#6480e4;fill-opacity:0;stroke:#414141;stroke-width:20.3436;stroke-linecap:round;stroke-linejoin:round;stroke-miterlimit:3.5;stroke-dasharray:none;stroke-opacity:1;paint-order:markers stroke fill"
       d="m -71.103599,-68.66807 c -0.17864,-0.002 -0.35751,0.001 -0.53632,0.009 -2.440909,0.10525 -4.879449,1.0712 -6.832269,2.90493 l -11.98959,11.25883 c -0.3317,-0.93781 -0.85715,-1.82107 -1.58015,-2.59103 -1.54147,-1.64158 -3.654441,-2.42169 -5.764531,-2.3307 -1.80029,0.0776 -3.598421,0.78875 -5.038711,2.14121 l -13.99981,13.14626 c -0.53295,-0.67255 -1.10401,-1.34946 -1.70128,-1.98549 -1.52143,-1.62021 -3.60692,-2.39084 -5.68954,-2.30102 -1.77687,0.0767 -3.55128,0.77912 -4.97281,2.114 l -47.17082,44.2946325 h -29.72312 c -4.85526,0 -8.76419,3.6992004 -8.76419,8.2937704 V 59.029776 c 0,4.59456 3.90893,8.29295 8.76419,8.29295 h 52.93364 c 4.85526,0 8.76419,-3.69839 8.76419,-8.29295 v -23.45108 l 37.37847,-35.09963314 1.24816,-1.1715204 c 2.554,-2.39827096 2.73252,-6.32835996 0.40039,-8.81194396 -0.52135,-0.5551945 -1.12406,-0.9875965 -1.77212,-1.3008805 l 40.588161,-38.112448 2.07199,-1.94596 c 4.241648,-3.98296 4.537988,-10.50952 0.66487,-14.63417 -1.95942,-2.08661 -4.5991,-3.14747 -7.2788,-3.17021 z m -68.176691,3.70819 c -0.0665,-5.7e-4 -0.13361,0.001 -0.20022,0.004 -0.90853,0.0392 -1.81556,0.39835 -2.54243,1.0809 l -33.09846,31.079178 c -1.57879,1.48252 -1.68879,3.912062 -0.24716,5.447336 1.44165,1.535257 3.87351,1.577283 5.45229,0.09471 l 32.32652,-30.355014 0.77116,-0.72417 c 1.5788,-1.48251 1.68879,-3.91208 0.24714,-5.44734 -0.72931,-0.77667 -1.71144,-1.1713 -2.70884,-1.17977 z m 41.302471,80.025343 c -0.0515,-4.3e-4 -0.10328,2.6e-4 -0.1548,0.003 -0.70368,0.0304 -1.4069,0.30844 -1.969851,0.83706 l -25.63431,24.071463 c -1.2228,1.14822 -1.30853,3.02908 -0.19199,4.21815 1.11657,1.18909 3.00031,1.22227 4.22312,0.0742 l 25.037001,-23.510433 0.5973,-0.56023 c 1.22282,-1.14821 1.30853,-3.02991 0.19198,-4.21896 -0.56487,-0.60154 -1.32587,-0.9071 -2.09837,-0.91366 z" />
  </g>
</svg>
