<svg width="16" height="16" viewBox="0 0 16 16" fill="none" xmlns="http://www.w3.org/2000/svg">
<path d="M3.60505 8.85501C3.87005 9.08501 3.99755 9.39251 3.98755 9.77751L3.95755 11.57C3.95255 12.06 4.05755 12.4875 4.27255 12.8525C4.49255 13.2225 4.80255 13.505 5.20255 13.7C5.60755 13.9 6.07755 14 6.61255 14H7.5V12.995H6.62005C6.14505 12.995 5.76755 12.8625 5.48755 12.5975C5.21255 12.3375 5.08005 11.9875 5.09005 11.5475L5.12005 9.77001C5.13005 9.30501 4.99255 8.91001 4.70755 8.58501C4.42255 8.25501 4.03755 8.04501 3.55255 7.95501C4.03755 7.92001 4.42255 7.74251 4.70755 7.42251C4.99255 7.09751 5.13005 6.68001 5.12005 6.17001L5.09005 4.6025C5.08505 4.1125 5.23255 3.725 5.53255 3.44C5.83755 3.15 6.25005 3.005 6.77005 3.005H7.5V2H6.76255C6.18755 2 5.68755 2.105 5.26255 2.315C4.83755 2.525 4.51005 2.825 4.28005 3.215C4.05505 3.605 3.94755 4.06 3.95755 4.58L3.98755 6.16251C3.99755 6.54751 3.87005 6.85501 3.60505 7.08501C3.34005 7.31501 2.98255 7.43001 2.53255 7.43001H2V8.51001H2.53255C2.98255 8.51001 3.34005 8.62501 3.60505 8.85501Z" fill="#6C707E"/>
<path d="M11.856 12.5907C11.4931 12.3972 11.1683 12.1417 10.8957 11.8384C10.8518 12.1446 10.7223 12.3976 10.507 12.5975C10.232 12.8625 9.85705 12.995 9.38205 12.995H8.5V14H9.38955C9.92455 14 10.392 13.9 10.792 13.7C11.197 13.505 11.507 13.2225 11.722 12.8525C11.7727 12.7685 11.8173 12.6812 11.856 12.5907Z" fill="#6C707E"/>
<path d="M12.0145 6.16251C12.0131 6.2193 12.0146 6.2744 12.0191 6.32782C11.6519 6.49955 11.3194 6.73318 11.035 7.01528C10.9268 6.76941 10.8758 6.48765 10.882 6.17001L10.912 4.6025C10.917 4.1125 10.767 3.725 10.462 3.44C10.162 3.15 9.75205 3.005 9.23205 3.005H8.5V2H9.23955C9.81455 2 10.3145 2.105 10.7395 2.315C11.1645 2.525 11.4895 2.825 11.7145 3.215C11.9445 3.605 12.0545 4.06 12.0445 4.58L12.0145 6.16251Z" fill="#6C707E"/>
<path fill-rule="evenodd" clip-rule="evenodd" d="M14 11.95C15.1411 11.7184 16 10.7095 16 9.5C16 8.11929 14.8807 7 13.5 7C12.1193 7 11 8.11929 11 9.5C11 10.7095 11.8589 11.7184 13 11.95V16H14V15H16V14H14V11.95ZM15 9.5C15 10.3284 14.3284 11 13.5 11C12.6716 11 12 10.3284 12 9.5C12 8.67157 12.6716 8 13.5 8C14.3284 8 15 8.67157 15 9.5Z" fill="#E66D17"/>
</svg>
