<svg width="16" height="16" viewBox="0 0 16 16" fill="none" xmlns="http://www.w3.org/2000/svg">
<g clip-path="url(#clip0_4204_48578)">
<path fill-rule="evenodd" clip-rule="evenodd" d="M9 9.50215C9 8.32441 10.2951 7.60608 11.2942 8.22967L15.2962 10.7275C16.2372 11.3149 16.2372 12.6851 15.2962 13.2725L11.2942 15.7703C10.2951 16.3939 9 15.6756 9 14.4978V9.50215ZM10.7647 9.07799C10.4317 8.87013 10 9.10957 10 9.50215V14.4978C10 14.8904 10.4317 15.1298 10.7647 14.922L14.7667 12.4241C15.0804 12.2284 15.0804 11.7716 14.7667 11.5758L10.7647 9.07799Z" fill="#208A3C"/>
<path d="M10 9.50214C10 9.10956 10.4317 8.87012 10.7647 9.07798L14.7667 11.5758C15.0804 11.7716 15.0804 12.2284 14.7667 12.4241L10.7647 14.922C10.4317 15.1298 10 14.8904 10 14.4978V9.50214Z" fill="#F2FCF3"/>
<path fill-rule="evenodd" clip-rule="evenodd" d="M1.3116 12.7575L3.8116 2.75746C3.92289 2.3123 4.32288 2 4.78174 2H6.72019C7.37076 2 7.84812 2.61139 7.69033 3.24253L5.19033 13.2425C5.07904 13.6877 4.67906 14 4.22019 14H2.28174C1.63117 14 1.15381 13.3886 1.3116 12.7575ZM4.78174 3L2.28174 13H4.22019L6.72019 3L4.78174 3Z" fill="#6C707E"/>
<path d="M8.8116 2.75746L6.3116 12.7575C6.15381 13.3886 6.63117 14 7.28174 14H8V13H7.28174L8 10.127V9.50216C8 8.89092 8.20931 8.35393 8.54784 7.9356L9.78174 3L11.7202 3L10.7183 7.00744C11.0409 7.03565 11.366 7.12884 11.6769 7.29615L12.6903 3.24253C12.8481 2.61139 12.3708 2 11.7202 2H9.78174C9.32288 2 8.92289 2.3123 8.8116 2.75746Z" fill="#6C707E"/>
</g>
<defs>
<clipPath id="clip0_4204_48578">
<rect width="16" height="16" fill="white"/>
</clipPath>
</defs>
</svg>
